<svg width="150" height="150" viewBox="0 0 150 150" fill="none" xmlns="http://www.w3.org/2000/svg">
<rect width="150" height="150" rx="40" fill="#E7F7D3"/>
<path d="M45.1884 35.3349C41.8391 36.1564 39.2007 38.8264 38.3002 42.3495C38.0158 43.5028 38 44.4192 38 75.5585C38 106.903 38 107.598 38.316 108.799C39.1217 111.975 41.3019 114.408 44.4143 115.577C45.3464 115.924 45.3938 115.924 56.4371 115.972C67.1487 116.019 67.5594 116.003 68.1282 115.703C70.4506 114.518 70.5138 111.279 68.2546 110.031C67.828 109.794 66.6589 109.747 57.3535 109.684C49.2329 109.621 46.8157 109.557 46.4523 109.399C45.378 108.925 44.4775 107.63 44.4775 106.524C44.4775 105.418 45.378 104.123 46.4523 103.649C46.8315 103.491 49.8333 103.427 60.8292 103.364C73.3734 103.285 74.7795 103.254 75.206 103.017C77.4653 101.784 77.4021 98.5299 75.0954 97.345C74.5425 97.0606 74.0527 97.0448 65.8058 97.0448H57.1165V73.6626C57.1165 48.2583 57.1639 49.6802 56.2791 48.7322C55.0626 47.4209 52.6928 47.4209 51.4763 48.7322C50.5916 49.6802 50.639 48.2583 50.639 73.6626V97.0448H48.3166C46.7367 97.0448 45.7414 97.1238 45.2358 97.2818L44.4775 97.5029V70.7715C44.4775 45.0827 44.4933 44.0084 44.7777 43.4081C45.1094 42.6813 45.773 42.0178 46.4523 41.7176C46.8315 41.5438 51.9503 41.4964 73.3418 41.4648L99.7731 41.4332V56.6C99.7731 73.0465 99.7415 72.3829 100.61 73.3151C101.827 74.6264 104.197 74.6264 105.413 73.3151C106.282 72.3829 106.251 73.2045 106.251 54.7042C106.251 39.648 106.219 37.5625 106.014 37.0412C105.698 36.2986 105.224 35.7931 104.481 35.4139C103.912 35.1295 103.107 35.1137 74.9375 35.1295C52.7086 35.1453 45.7888 35.1927 45.1884 35.3349Z" fill="#AFD085"/>
<path d="M95.9024 81.6569C94.828 81.8307 92.6636 82.5733 91.5893 83.1578C88.7929 84.6587 86.7707 86.7599 85.3962 89.6353C84.3377 91.8471 84.0691 93.1268 84.0849 95.781C84.1007 98.4194 84.3851 99.7623 85.3488 101.832L85.9333 103.064L81.9521 107.046C79.3453 109.668 77.8918 111.232 77.7338 111.611C77.1019 113.175 77.7496 114.929 79.2663 115.703C79.993 116.082 81.4307 116.098 82.1259 115.751C82.4102 115.608 84.3693 113.76 86.5021 111.643L90.3886 107.772L91.7947 108.499C92.5846 108.894 93.9275 109.4 94.7964 109.621C96.2499 110 96.5659 110.016 98.7461 109.952C100.737 109.889 101.337 109.794 102.459 109.447C107.23 107.946 110.785 104.233 112.128 99.3357C112.617 97.5189 112.617 94.0432 112.128 92.2263C110.785 87.3287 107.23 83.616 102.459 82.1151C101.306 81.7517 100.784 81.6885 98.7461 81.6411C97.4506 81.6095 96.1709 81.6253 95.9024 81.6569ZM100.373 88.2924C103.075 89.0823 105.16 91.2784 105.84 94.059C105.982 94.6277 106.093 95.4018 106.093 95.781C106.093 97.6295 105.145 99.8571 103.77 101.232C100.674 104.328 95.8708 104.328 92.7742 101.232C91.3997 99.8571 90.4518 97.6295 90.4518 95.781C90.4518 95.4018 90.5624 94.6277 90.7046 94.059C91.3681 91.3258 93.343 89.2087 95.9813 88.3556C97.1189 87.9764 99.2043 87.9606 100.373 88.2924Z" fill="#FFC30D"/>
</svg>
