<svg width="150" height="150" viewBox="0 0 150 150" fill="none" xmlns="http://www.w3.org/2000/svg">
<rect width="150" height="150" rx="40" fill="#E7F3FF"/>
<path d="M48.7905 36.1614C45.647 37.0312 43.4191 39.2133 42.2899 42.5093C42.0153 43.3181 42 44.371 42 75.012C42 105.562 42.0153 106.706 42.2899 107.515C43.2971 110.49 45.296 112.596 48.1191 113.664L49.0194 114H77.5088H105.983L106.578 113.527C108.241 112.199 108.241 109.849 106.578 108.522L105.983 108.049L78.2718 107.973C55.8404 107.911 50.4538 107.85 50.0875 107.698C49.0499 107.24 48.1801 105.989 48.1801 104.921C48.1801 103.852 49.0499 102.601 50.0875 102.143C50.4538 101.991 55.8404 101.93 78.2718 101.869L105.983 101.792L106.578 101.319C106.899 101.075 107.311 100.556 107.509 100.19C107.845 99.534 107.845 99.4119 107.845 94.3153C107.845 89.2186 107.845 89.0965 107.509 88.4404C107.311 88.0741 106.899 87.5553 106.578 87.3112C106.029 86.8686 105.907 86.8381 104.716 86.8381C103.526 86.8381 103.404 86.8686 102.855 87.3112C102.534 87.5553 102.122 88.0741 101.939 88.4404C101.604 89.0813 101.588 89.2949 101.588 92.4383V95.7649H80.988H60.3877V73.1351V50.5053L60.052 49.8339C59.8536 49.4676 59.4416 48.9488 59.1211 48.7047C58.5718 48.2621 58.4497 48.2316 57.2595 48.2316C56.0692 48.2316 55.9472 48.2621 55.3978 48.7047C55.0774 48.9488 54.6654 49.4676 54.4823 49.8339L54.1313 50.5053V73.1351V95.7649H51.8729C50.3622 95.7649 49.3703 95.8412 48.8973 95.9785L48.1801 96.1922V70.3884C48.1801 45.7443 48.1954 44.5388 48.47 43.959C48.8668 43.0892 49.6755 42.4178 50.6216 42.2194C51.171 42.0973 58.816 42.0515 76.4864 42.0515H101.588V58.6539V75.2562L101.939 75.9276C102.122 76.2938 102.534 76.8126 102.855 77.0568C103.404 77.4993 103.526 77.5298 104.716 77.5298C105.907 77.5298 106.029 77.4993 106.578 77.0568C106.899 76.8126 107.311 76.2938 107.509 75.9276L107.845 75.2562V56.7769V38.2977L107.509 37.6263C107.311 37.26 106.899 36.7412 106.578 36.4971L105.983 36.024L77.7377 35.9935C55.5046 35.9783 49.3246 36.0088 48.7905 36.1614Z" fill="#59A6F2"/>
<path d="M79.2329 53.725C77.1271 54.8542 76.8829 57.5704 78.7446 59.0506C79.2939 59.4931 79.416 59.5236 80.6062 59.5236C81.7965 59.5236 81.9186 59.4931 82.4679 59.0506C84.1312 57.723 84.1312 55.373 82.4679 54.0455C81.9643 53.6335 81.7354 53.5724 80.7894 53.5266C79.9959 53.4961 79.5686 53.5572 79.2329 53.725Z" fill="#FFC30D"/>
<path d="M79.2334 64.2541C78.5314 64.6356 78.0736 65.1086 77.7684 65.78C77.509 66.3446 77.4785 66.9703 77.4785 75.3172V84.2592L77.8295 84.9307C78.0126 85.2969 78.4246 85.8157 78.7451 86.0599C79.2944 86.5024 79.4165 86.5329 80.6067 86.5329C81.797 86.5329 81.919 86.5024 82.4684 86.0599C82.7888 85.8157 83.2008 85.2969 83.3992 84.9307L83.7349 84.2592V75.3172V66.3751L83.3992 65.7037C83.2008 65.3375 82.7888 64.8187 82.4684 64.5745C81.9648 64.1625 81.7359 64.1015 80.7898 64.0557C79.9963 64.0252 79.5691 64.0862 79.2334 64.2541Z" fill="#FFC30D"/>
</svg>
