<svg width="150" height="150" viewBox="0 0 150 150" fill="none" xmlns="http://www.w3.org/2000/svg">
<rect width="150" height="150" rx="40" fill="#FFF1DE"/>
<path d="M49.3983 36.2685C44.6135 37.4723 41.2 41.0991 40.24 46.0059C39.92 47.6821 39.92 102.297 40.24 103.973C41.0781 108.24 43.7449 111.531 47.6459 113.131C49.6422 113.954 50.0993 114 56.9871 114C62.9454 114 63.3873 113.985 63.9206 113.71C64.6368 113.345 65.094 112.857 65.3987 112.141C66.0083 110.648 65.3835 108.941 63.9206 108.194C63.4025 107.92 62.9606 107.905 58.0538 107.905C55.1432 107.889 52.2936 107.828 51.7298 107.767C49.0631 107.417 46.9145 105.451 46.4268 102.891C46.2135 101.763 46.2135 48.2154 46.4268 47.0878C46.9145 44.5277 49.0631 42.562 51.7298 42.2115C53.0708 42.0439 89.0032 42.0439 90.3442 42.2115C93.0109 42.562 95.1595 44.5277 95.6471 47.0878C95.7386 47.5907 95.7995 51.7355 95.7995 57.7547V67.614L96.15 68.2845C96.3329 68.6503 96.7443 69.1531 97.0643 69.4122C97.552 69.8084 97.811 69.8846 98.6796 69.9303C100.203 70.0217 101.27 69.3969 101.819 68.1017C102.154 67.2788 102.169 47.7431 101.834 46.0059C100.843 40.9924 97.3386 37.3352 92.4775 36.2228C91.5175 36.0094 89.2165 35.9789 70.9303 35.9942C51.9432 35.9942 50.3888 36.0247 49.3983 36.2685Z" fill="#FF773D"/>
<path d="M53.9697 54.5089C51.8668 55.5909 51.623 58.3338 53.4821 59.8119L54.0764 60.2843L70.8235 60.33C87.0677 60.3605 87.5858 60.3605 88.1497 60.071C90.4354 58.8976 90.4354 55.728 88.1497 54.5547C87.6011 54.2804 87.0068 54.2651 71.0064 54.2651C56.286 54.2651 54.3812 54.2956 53.9697 54.5089Z" fill="#FF773D"/>
<path d="M53.9697 66.6997C51.8668 67.7817 51.623 70.5246 53.4821 72.0027L54.0764 72.4751L70.8235 72.5208C87.0677 72.5513 87.5858 72.5513 88.1497 72.2618C90.4354 71.0884 90.4354 67.9188 88.1497 66.7454C87.6011 66.4712 87.0068 66.4559 71.0064 66.4559C56.286 66.4559 54.3812 66.4864 53.9697 66.6997Z" fill="#FF773D"/>
<path d="M98.5578 77.6562C97.3387 78.0067 96.4853 78.4181 95.4339 79.1648C94.931 79.5305 90.588 83.7668 85.7879 88.5822L77.0867 97.3139L76.5381 99.0663C73.3076 109.596 73.2009 109.962 73.1857 110.983C73.1704 111.882 73.2314 112.065 73.6276 112.659C73.8866 113.009 74.3743 113.467 74.6943 113.65C75.7762 114.259 76.3858 114.168 83.2583 112.263C86.7022 111.303 89.7499 110.404 90.0394 110.267C90.3137 110.129 94.5653 105.985 99.4721 101.078C108.356 92.1937 108.417 92.1175 109.042 90.8375C110.444 87.9574 110.459 85.184 109.072 82.3801C108.067 80.3382 106.147 78.6467 103.983 77.8848C102.733 77.4429 99.7921 77.321 98.5578 77.6562ZM102.002 83.843C102.977 84.2088 103.876 85.504 103.876 86.5707C103.876 87.2565 103.419 88.2165 102.855 88.7346L102.413 89.1613L100.371 87.1041L98.3292 85.0621L98.7711 84.5745C99.0301 84.3154 99.4416 84.0107 99.6854 83.8887C100.234 83.6449 101.407 83.6145 102.002 83.843ZM92.4014 99.1729L86.8089 104.781L83.8831 105.588C82.283 106.03 80.9573 106.366 80.9421 106.35C80.9116 106.32 81.2925 105.025 81.7649 103.44L82.6183 100.59L88.2261 94.9976L93.8338 89.4051L95.9215 91.4928L98.0092 93.5804L92.4014 99.1729Z" fill="#FFCC3D"/>
<path d="M53.9697 78.8905C51.8668 79.9877 51.623 82.7154 53.4821 84.1935L54.0764 84.6659H64.8653H75.6541L76.2484 84.1935C77.9094 82.8678 77.9094 80.5211 76.2484 79.1953L75.6541 78.7229L65.0481 78.6772C55.6307 78.6467 54.3812 78.6772 53.9697 78.8905Z" fill="#FF773D"/>
</svg>
