<svg width="150" height="150" viewBox="0 0 150 150" fill="none" xmlns="http://www.w3.org/2000/svg">
<rect width="150" height="150" rx="40" fill="#E7F7D3"/>
<path d="M45 61H81" stroke="#FFC30D" stroke-width="2" stroke-linecap="round"/>
<path d="M69 44H105" stroke="#FFC30D" stroke-width="2" stroke-linecap="round"/>
<path d="M60.2014 32.3564C59.7601 32.5771 59.2679 33.0184 59.0133 33.4088L58.555 34.1047L58.5041 41.5391L58.4531 48.9735H50.7302C44.1445 48.9735 42.9224 49.0074 42.3793 49.2281C41.5306 49.5845 32.7893 58.2919 32.331 59.2594C31.8897 60.159 31.8897 61.5508 32.331 62.4504C32.7893 63.4179 41.5306 72.1253 42.3793 72.4817C42.9224 72.7024 44.484 72.7363 54.1419 72.7363H65.2595V92.4255V112.115H61.3556C57.7742 112.115 57.3838 112.149 56.7728 112.454C55.9411 112.879 55.33 113.676 55.0584 114.712C54.6511 116.188 55.4149 117.869 56.7728 118.565C57.4347 118.904 57.7233 118.904 75.5963 118.87L93.741 118.819L94.4029 118.293C96.253 116.816 96.253 114.202 94.4029 112.726L93.741 112.2L89.6843 112.149L85.6276 112.098V98.8415C85.6276 85.6701 85.6276 85.5682 85.2712 84.8214C85.0505 84.3801 84.6262 83.9048 84.2188 83.6333C83.6248 83.2429 83.3532 83.175 82.2329 83.175C81.1127 83.175 80.8411 83.2429 80.2471 83.6333C79.8397 83.9048 79.4154 84.3801 79.1947 84.8214C78.8383 85.5682 78.8383 85.6701 78.8383 98.8415V112.115H75.4436H72.0489V92.4255V72.7363H80.9939C89.7522 72.7363 89.9559 72.7363 90.6857 72.3799C91.127 72.1592 91.6023 71.7349 91.8739 71.3275L92.3322 70.6316L92.3831 63.1972L92.434 55.7628H100.157C106.743 55.7628 107.965 55.7289 108.508 55.5082C109.357 55.1518 118.098 46.4444 118.556 45.4769C118.997 44.5773 118.997 43.1855 118.556 42.2859C118.098 41.3184 109.357 32.611 108.508 32.2546C107.948 32.0339 105.215 32 84.4056 32H60.9313L60.2014 32.3564ZM107.948 41.3354L110.494 43.8814L107.948 46.4274L105.402 48.9735H85.3391H65.2595V43.8814V38.7894H85.3391H105.402L107.948 41.3354ZM85.6276 60.8549V65.9469H65.548H45.4854L42.9394 63.4009L40.3934 60.8549L42.9394 58.3089L45.4854 55.7628H65.548H85.6276V60.8549Z" fill="#FF773D"/>
</svg>
