<svg width="150" height="150" viewBox="0 0 150 150" fill="none" xmlns="http://www.w3.org/2000/svg">
<rect width="150" height="150" rx="40" fill="#EEEAFF"/>
<path d="M55.84 32.2376C53.583 33.0306 53.1356 33.9457 53.0543 37.7888L52.9933 40.6965H46.4865H40V41.6522C40 43.1975 40.7524 45.9019 41.647 47.6507C42.6231 49.501 44.7174 51.8598 46.6085 53.2018C48.1945 54.3405 51.1023 55.7435 52.1799 55.8858L53.0136 56.0079V61.3556V66.7238H46.5068H40V67.6795C40 69.2248 40.7524 71.9292 41.647 73.6779C42.6231 75.5283 44.7174 77.887 46.6085 79.2291C48.1945 80.3678 51.1023 81.7708 52.1799 81.9131L53.0136 82.0351V87.3829V92.7511H46.5068H40V93.7067C40 95.2521 40.7524 97.9565 41.647 99.7052C42.6231 101.556 44.7174 103.914 46.6085 105.256C48.1945 106.395 51.1023 107.798 52.1799 107.94L52.9933 108.042L53.0543 112.048C53.1356 116.725 53.278 117.233 54.9453 118.27L55.9214 118.88H74.7708H93.6202L94.5963 118.27C96.2636 117.233 96.406 116.725 96.4873 112.048L96.5483 108.042L97.3617 107.94C98.4394 107.798 101.347 106.395 102.933 105.256C105.028 103.772 107 101.495 108.017 99.3799C108.952 97.4278 109.542 95.2114 109.542 93.6864V92.7511H103.035H96.528V87.3829V82.0351L97.3617 81.9131C98.4394 81.7708 101.347 80.3678 102.933 79.2291C105.028 77.7447 107 75.4673 108.017 73.3526C108.952 71.4006 109.542 69.1842 109.542 67.6591V66.7238H103.035H96.528V61.3556V56.0079L97.3617 55.8858C98.4394 55.7435 101.347 54.3405 102.933 53.2018C105.028 51.7174 107 49.44 108.017 47.3253C108.952 45.3733 109.542 43.1569 109.542 41.6319V40.6965H103.055H96.5483L96.4873 37.7888C96.406 34.332 96.162 33.6407 94.5963 32.6646L93.6202 32.0546L75.0961 32.014C60.2931 31.9733 56.4297 32.014 55.84 32.2376ZM77.8209 41.4895C81.237 42.8112 83.5143 46.329 83.2703 49.9077C83.006 53.5881 80.6676 56.5365 77.1499 57.6142C73.7135 58.6512 69.8907 57.2889 67.7963 54.3201C64.5226 49.623 66.739 43.0959 72.2291 41.3065C73.8151 40.7778 76.2145 40.8592 77.8209 41.4895ZM77.8209 67.5168C81.237 68.8385 83.5143 72.3562 83.2703 75.935C83.006 79.6154 80.6676 82.5638 77.1499 83.6415C73.7135 84.6785 69.8907 83.3162 67.7963 80.3474C64.5226 75.6503 66.739 69.1232 72.2291 67.3338C73.8151 66.8051 76.2145 66.8864 77.8209 67.5168ZM77.8209 93.5441C81.237 94.8658 83.5143 98.3835 83.2703 101.962C83.006 105.643 80.6676 108.591 77.1499 109.669C73.7135 110.706 69.8907 109.343 67.7963 106.375C64.5226 101.678 66.739 95.1504 72.2291 93.3611C73.8151 92.8324 76.2145 92.9137 77.8209 93.5441Z" fill="#59A6F2"/>
</svg>
